REM DIRINDEX 1\2,1\3,1\4,1\5
REM DIRNAME cjc005,folder01,folder02,folder03,folder04
TITLE ""
FILE "P1Q_t_0050-0059.mp3" MP3
  TRACK 01 AUDIO
    TITLE "3:cjc005_1050"
    INDEX 01 00:00:00
  TRACK 02 AUDIO
    TITLE "0:"
    INDEX 01 00:01:03
  TRACK 03 AUDIO
    TITLE "4:cjc005_1051"
    INDEX 01 00:01:34
  TRACK 04 AUDIO
    TITLE "0:"
    INDEX 01 00:02:61
  TRACK 05 AUDIO
    TITLE "5:cjc005_1052"
    INDEX 01 00:03:06
  TRACK 06 AUDIO
    TITLE "0:"
    INDEX 01 00:07:54
  TRACK 07 AUDIO
    TITLE "3:cjc005_1053"
    INDEX 01 00:08:23
  TRACK 08 AUDIO
    TITLE "0:"
    INDEX 01 00:09:49
  TRACK 09 AUDIO
    TITLE "4:cjc005_1054"
    INDEX 01 00:10:00
  TRACK 10 AUDIO
    TITLE "0:"
    INDEX 01 00:11:29
  TRACK 11 AUDIO
    TITLE "5:cjc005_1055"
    INDEX 01 00:11:56
  TRACK 12 AUDIO
    TITLE "0:"
    INDEX 01 00:14:60
  TRACK 13 AUDIO
    TITLE "3:cjc005_1056"
    INDEX 01 00:15:36
  TRACK 14 AUDIO
    TITLE "0:"
    INDEX 01 00:16:51
  TRACK 15 AUDIO
    TITLE "4:cjc005_1057"
    INDEX 01 00:17:06
  TRACK 16 AUDIO
    TITLE "0:"
    INDEX 01 00:18:46
  TRACK 17 AUDIO
    TITLE "5:cjc005_1058"
    INDEX 01 00:18:74
  TRACK 18 AUDIO
    TITLE "0:"
    INDEX 01 00:23:08
  TRACK 19 AUDIO
    TITLE "3:cjc005_1059"
    INDEX 01 00:23:61
  TRACK 20 AUDIO
    TITLE "0:"
    INDEX 01 00:24:72
  TRACK 21 AUDIO
    TITLE "4:cjc005_1060"
    INDEX 01 00:25:21
  TRACK 22 AUDIO
    TITLE "0:"
    INDEX 01 00:26:48
  TRACK 23 AUDIO
    TITLE "5:cjc005_1061"
    INDEX 01 00:26:73
  TRACK 24 AUDIO
    TITLE "0:"
    INDEX 01 00:32:33
  TRACK 25 AUDIO
    TITLE "3:cjc005_1062"
    INDEX 01 00:33:11
  TRACK 26 AUDIO
    TITLE "0:"
    INDEX 01 00:34:22
  TRACK 27 AUDIO
    TITLE "4:cjc005_1063"
    INDEX 01 00:34:57
  TRACK 28 AUDIO
    TITLE "0:"
    INDEX 01 00:35:70
  TRACK 29 AUDIO
    TITLE "5:cjc005_1064"
    INDEX 01 00:36:17
  TRACK 30 AUDIO
    TITLE "0:"
    INDEX 01 00:40:11
  TRACK 31 AUDIO
    TITLE "3:cjc005_1065"
    INDEX 01 00:40:66
  TRACK 32 AUDIO
    TITLE "0:"
    INDEX 01 00:42:06
  TRACK 33 AUDIO
    TITLE "4:cjc005_1066"
    INDEX 01 00:42:37
  TRACK 34 AUDIO
    TITLE "0:"
    INDEX 01 00:44:07
  TRACK 35 AUDIO
    TITLE "5:cjc005_1067"
    INDEX 01 00:44:32
  TRACK 36 AUDIO
    TITLE "0:"
    INDEX 01 00:48:44
  TRACK 37 AUDIO
    TITLE "3:cjc005_1068"
    INDEX 01 00:49:25
  TRACK 38 AUDIO
    TITLE "0:"
    INDEX 01 00:50:37
  TRACK 39 AUDIO
    TITLE "4:cjc005_1069"
    INDEX 01 00:50:70
  TRACK 40 AUDIO
    TITLE "0:"
    INDEX 01 00:52:20
  TRACK 41 AUDIO
    TITLE "5:cjc005_1070"
    INDEX 01 00:52:49
  TRACK 42 AUDIO
    TITLE "0:"
    INDEX 01 00:57:23
  TRACK 43 AUDIO
    TITLE "3:cjc005_1071"
    INDEX 01 00:58:03
  TRACK 44 AUDIO
    TITLE "0:"
    INDEX 01 00:59:08
  TRACK 45 AUDIO
    TITLE "4:cjc005_1072"
    INDEX 01 00:59:38
  TRACK 46 AUDIO
    TITLE "0:"
    INDEX 01 01:00:74
  TRACK 47 AUDIO
    TITLE "5:cjc005_1073"
    INDEX 01 01:01:21
  TRACK 48 AUDIO
    TITLE "0:"
    INDEX 01 01:04:54
  TRACK 49 AUDIO
    TITLE "3:cjc005_1074"
    INDEX 01 01:05:28
  TRACK 50 AUDIO
    TITLE "0:"
    INDEX 01 01:06:47
  TRACK 51 AUDIO
    TITLE "4:cjc005_1075"
    INDEX 01 01:07:00
  TRACK 52 AUDIO
    TITLE "0:"
    INDEX 01 01:08:29
  TRACK 53 AUDIO
    TITLE "5:cjc005_1076"
    INDEX 01 01:08:54
  TRACK 54 AUDIO
    TITLE "0:"
    INDEX 01 01:12:42
  TRACK 55 AUDIO
    TITLE "3:cjc005_1077"
    INDEX 01 01:13:18
  TRACK 56 AUDIO
    TITLE "0:"
    INDEX 01 01:14:39
  TRACK 57 AUDIO
    TITLE "4:cjc005_1078"
    INDEX 01 01:14:68
  TRACK 58 AUDIO
    TITLE "0:"
    INDEX 01 01:16:05
  TRACK 59 AUDIO
    TITLE "5:cjc005_1079"
    INDEX 01 01:16:36
  TRACK 60 AUDIO
    TITLE "0:"
    INDEX 01 01:19:74
